<svg id="icon-calendar-down" data-name="icon-calendar-down" xmlns="http://www.w3.org/2000/svg" viewBox="0 0 17 17">
  <path d="M14.6258993,2.51019592 L12.0591527,2.51019592 L12.0591527,1.57986461 C12.0591527,1.37947956 11.8777045,1.21703539 11.6538769,1.21703539 C11.4300493,1.21703539 11.2486011,1.37947956 11.2486011,1.57986461 L11.2486011,2.51019592 L8.92086331,2.51019592 L8.92086331,1.57986461 C8.92086331,1.37947956 8.73941516,1.21703539 8.51558753,1.21703539 C8.2917599,1.21703539 8.11031175,1.37947956 8.11031175,1.57986461 L8.11031175,2.51019592 L5.64748201,2.51019592 L5.64748201,1.47752816 C5.70322139,1.32776892 5.64440975,1.16292964 5.50202168,1.06982699 C5.35963361,0.976724337 5.16634561,0.976724337 5.02395754,1.06982699 C4.88156947,1.16292964 4.82275782,1.32776892 4.8784972,1.47752816 L4.8784972,2.51019592 L2.40527578,2.51019592 C2.29778996,2.51019592 2.19470648,2.54842246 2.11870253,2.61646614 C2.04269858,2.68450981 2,2.77679684 2,2.87302513 L2,12.7438404 C2.00547215,12.9421608 2.18375437,13.1017706 2.40527578,13.1066696 L4.26538769,13.1066696 C4.41017879,13.1066696 4.54397129,13.0375148 4.61636684,12.925255 C4.68876239,12.8129953 4.68876239,12.6746855 4.61636684,12.5624258 C4.54397129,12.450166 4.41017879,12.3810112 4.26538769,12.3810112 L2.80015987,12.3810112 L2.80015987,6.97578624 L14.2310152,6.97578624 L14.2310152,12.3531012 L12.5163869,12.3531012 C12.2925593,12.3531013 12.1111111,12.5155454 12.1111111,12.7159305 C12.1111111,12.9163155 12.2925593,13.0787597 12.5163869,13.0787597 L14.5947242,13.0787597 C14.8162456,13.0738606 14.9945279,12.9142508 15,12.7159305 L15,2.83581188 C14.9803002,2.66028608 14.8224365,2.52288207 14.6258993,2.51019592 Z M2.80015987,6.23152118 L2.80015987,3.1986411 L4.8784972,3.1986411 L4.8784972,4.50110494 C4.8784972,4.70148998 5.05994535,4.86393415 5.28377298,4.86393415 C5.50760061,4.86393415 5.68904876,4.70148998 5.68904876,4.50110494 L5.68904876,3.1986411 L8.11031175,3.1986411 L8.11031175,4.55692482 C8.11031176,4.75730985 8.29175991,4.91975401 8.51558753,4.91975401 C8.73941515,4.91975401 8.9208633,4.75730985 8.92086331,4.55692482 L8.92086331,3.1986411 L11.2486011,3.1986411 L11.2486011,4.55692482 C11.2486011,4.75730985 11.4300493,4.91975401 11.6538769,4.91975401 C11.8777045,4.91975401 12.0591527,4.75730985 12.0591527,4.55692482 L12.0591527,3.1986411 L14.2310152,3.1986411 L14.2310152,6.23152118 L2.80015987,6.23152118 Z M10.8017586,12.9764232 C10.8767413,12.8937484 10.9893582,12.8457403 11.1083133,12.8457403 C11.2272685,12.8457403 11.3398854,12.8937484 11.4148681,12.9764232 C11.4897528,13.042818 11.5318839,13.1332578 11.5318839,13.2276127 C11.5318839,13.3219676 11.4897528,13.4124074 11.4148681,13.4788021 L8.71302958,15.8976636 C8.63779891,15.9629663 8.53723991,15.9996439 8.43245404,16 L8.37010392,16 C8.20027904,15.9997778 8.04963198,15.9023724 7.9960032,15.7581139 L5.40847322,13.4788021 C5.33358853,13.4124074 5.29145747,13.3219676 5.29145747,13.2276127 C5.29145747,13.1332578 5.33358853,13.042818 5.40847322,12.9764232 C5.48299391,12.9064639 5.58626415,12.8668766 5.6942446,12.8668766 C5.80222506,12.8668766 5.9054953,12.9064639 5.98001599,12.9764232 L7.9128697,14.7440527 L7.9128697,8.23173351 C7.90997892,8.13473497 7.95174852,8.04093661 8.0283881,7.97232387 C8.10502768,7.90371114 8.20979931,7.86631628 8.31814548,7.8689043 C8.54197312,7.8689043 8.72342126,8.03134847 8.72342126,8.23173351 L8.72342126,14.8370859 L10.8017586,12.9764232 Z"/>
</svg>
