<svg id="icon-external" data-name="icon-external" xmlns="http://www.w3.org/2000/svg" viewBox="0 0 17 17">
  <path d="M13.7928932,2.5 L10,2.5 C9.72385763,2.5 9.5,2.27614237 9.5,2 C9.5,1.72385763 9.72385763,1.5 10,1.5 L15.0032904,1.5 C15.2794328,1.5 15.5032904,1.72385763 15.5032904,2 L15.5032904,7.16227766 C15.5032904,7.43842004 15.2794328,7.66227766 15.0032904,7.66227766 C14.727148,7.66227766 14.5032904,7.43842004 14.5032904,7.16227766 L14.5032904,3.20381638 L9.85355339,7.85355339 C9.65829124,8.04881554 9.34170876,8.04881554 9.14644661,7.85355339 C8.95118446,7.65829124 8.95118446,7.34170876 9.14644661,7.14644661 L13.7928932,2.5 Z M14.5,11.9333333 C14.5,11.657191 14.7238576,11.4333333 15,11.4333333 C15.2761424,11.4333333 15.5,11.657191 15.5,11.9333333 L15.5,14.1333333 C15.5,14.8604068 14.8604068,15.5 14.1333333,15.5 L2.86666667,15.5 C2.13959321,15.5 1.5,14.8604068 1.5,14.1333333 L1.5,2.86666667 C1.5,2.13959321 2.13959321,1.5 2.86666667,1.5 L5.06666667,1.5 C5.34280904,1.5 5.56666667,1.72385763 5.56666667,2 C5.56666667,2.27614237 5.34280904,2.5 5.06666667,2.5 L2.86666667,2.5 C2.69187796,2.5 2.5,2.69187796 2.5,2.86666667 L2.5,14.1333333 C2.5,14.308122 2.69187796,14.5 2.86666667,14.5 L14.1333333,14.5 C14.308122,14.5 14.5,14.308122 14.5,14.1333333 L14.5,11.9333333 Z"/>
</svg>
