<svg id="icon-forward" data-name="icon-forward" xmlns="http://www.w3.org/2000/svg" viewBox="0 0 17 17">
  <path d="M9.38435422,3.06452802 C9.68134298,2.94196123 10.0317583,2.99381641 10.2580354,3.22166493 L15.743685,7.90277354 C15.900822,8.05991045 15.9888186,8.27047391 15.9888186,8.47946601 C15.9888186,8.6884581 15.900822,8.89902156 15.743685,9.05615847 L15.7091149,9.09072859 L10.2580354,13.7718372 C10.1008985,13.9289741 9.9091915,13.9996857 9.69862804,13.9996857 C9.59491768,13.9996857 9.48963595,13.9651156 9.38435422,13.9289741 C9.07008039,13.8079787 8.87837336,13.5109899 8.87837336,13.1778597 L8.87837336,3.81564246 C8.87837336,3.48408357 9.07008039,3.18709481 9.38435422,3.06452802 Z M1.50598086,13.9292884 C1.20899209,13.8067216 1.01728506,13.5097328 1,13.178174 L1,3.81595673 C1,3.48282648 1.19170703,3.18583771 1.50598086,3.06484229 C1.80296962,2.9422755 2.15338493,3.01141574 2.37966209,3.2219792 L7.86531169,7.90308781 C8.0224486,8.06022472 8.1088739,8.25193176 8.1088739,8.47978028 C8.1088739,8.68877237 8.0224486,8.89933584 7.86531169,9.05647275 L7.83074157,9.09104287 L2.37966209,13.7721515 C2.22252518,13.9292884 2.03081814,14 1.82025468,14 C1.71654432,14 1.61126259,13.9638585 1.50598086,13.9292884 Z M9.92647656,12.6718788 L14.8008636,8.49675107 L9.92647656,4.32162331 L9.92647656,12.6718788 Z M2.06538826,4.32193759 L2.06538826,12.6721931 L6.93977528,8.49706534 L2.06538826,4.32193759 Z"/>
</svg>
