<svg id="icon-comments" data-name="icon-comments" xmlns="http://www.w3.org/2000/svg" viewBox="0 0 17 17">
  <g>
    <path d="M6.638,9.239h0l-.772,0a.374.374,0,0,0-.266.112l-1.924,1.94L3.669,9.626a.373.373,0,0,0-.112-.265.425.425,0,0,0-.266-.109l-1.683.007L1.579,2.3l11.6-.049L13.2,6.1a.376.376,0,0,0,.376.374h0a.375.375,0,0,0,.374-.377l-.018-4.218a.371.371,0,0,0-.112-.265.375.375,0,0,0-.264-.109h0L1.2,1.552a.375.375,0,0,0-.374.377l.032,7.71A.373.373,0,0,0,.97,9.9a.321.321,0,0,0,.266.109l1.683-.007.009,2.2a.375.375,0,0,0,.234.345.36.36,0,0,0,.142.028.375.375,0,0,0,.267-.112L6.024,9.992l.615,0a.376.376,0,0,0,0-.751Z"/>
    <path d="M16.174,12.662l-.022-5.147L7.917,7.55,7.938,12.7l4.118-.017,2.586,2.82-.012-2.831ZM14.1,12.14a.751.751,0,0,0-.218.532l0,.888L12.61,12.172a.751.751,0,0,0-.554-.244h0l-3.367.014L8.671,8.3,15.4,8.27l.015,3.645-.793,0A.751.751,0,0,0,14.1,12.14Z"/>
  </g>
</svg>
