<svg id="icon-eye" data-name="icon-eye" xmlns="http://www.w3.org/2000/svg" viewBox="0 0 17 17">
  <path d="M8.5,14 C4.35786438,14 1,9.5447998 1,8.5 C1,7.4552002 4.35786438,3 8.5,3 C12.6421356,3 16,7.44787598 16,8.5 C16,9.55212402 12.6421356,14 8.5,14 Z M8.5,11.6428571 C10.3409492,11.6428571 11.8333333,10.2357521 11.8333333,8.5 C11.8333333,6.76424793 10.3409492,5.35714286 8.5,5.35714286 C6.65905083,5.35714286 5.16666667,6.76424793 5.16666667,8.5 C5.16666667,10.2357521 6.65905083,11.6428571 8.5,11.6428571 Z M8.5,10.0714286 C9.42047458,10.0714286 10.1666667,9.36787604 10.1666667,8.5 C10.1666667,7.63212396 9.42047458,6.92857143 8.5,6.92857143 C7.57952542,6.92857143 6.83333333,7.63212396 6.83333333,8.5 C6.83333333,9.36787604 7.57952542,10.0714286 8.5,10.0714286 Z"/>
</svg>
