<svg id="icon-stack" data-name="icon-stack" xmlns="http://www.w3.org/2000/svg" viewBox="0 0 17 17">
  <g>
    <path d="M8.616,15.516l-7.7-3.454a.5.5,0,1,1,.408-.912l7.3,3.271,7.3-3.271a.5.5,0,1,1,.408.912Z"/>
    <path d="M8.616,12.241.911,8.787a.5.5,0,1,1,.408-.912l7.3,3.271,7.3-3.271a.5.5,0,1,1,.408.912Z"/>
    <path d="M8.616,9.089a.5.5,0,0,1-.2-.044L.911,5.683a.5.5,0,0,1,0-.912l7.5-3.362a.5.5,0,0,1,.408,0l7.5,3.362a.5.5,0,0,1,0,.912L8.82,9.045A.5.5,0,0,1,8.616,9.089ZM2.338,5.227,8.616,8.041l6.277-2.814L8.616,2.413Z"/>
  </g>
</svg>



