<svg id="icon-trash" data-name="icon-trash" xmlns="http://www.w3.org/2000/svg" viewBox="0 0 17 17">
  <g>
    <path d="M16.5,2.207H12.035V.5a.5.5,0,0,0-.5-.5H5.465a.5.5,0,0,0-.5.5V2.207H.5a.5.5,0,0,0,0,1H2.207V16.5a.5.5,0,0,0,.5.5H14.294a.5.5,0,0,0,.5-.5V3.207H16.5a.5.5,0,0,0,0-1ZM5.965,1h5.069V2.207H5.965Zm7.828,15H3.207V3.207H13.794Z"/>
    <path d="M5.465,5.241a.5.5,0,0,0-.5.5v7.725a.5.5,0,0,0,1,0V5.741A.5.5,0,0,0,5.465,5.241Z"/>
    <path d="M8.5,5.241a.5.5,0,0,0-.5.5v7.725a.5.5,0,0,0,1,0V5.741A.5.5,0,0,0,8.5,5.241Z"/>
    <path d="M11.035,5.741v7.725a.5.5,0,0,0,1,0V5.741a.5.5,0,0,0-1,0Z"/>
  </g>
</svg>
