<svg id="icon-steps-ok" data-name="icon-steps-ok" xmlns="http://www.w3.org/2000/svg" viewBox="0 0 17 17">
  <path d="M4.77066116,2.00000003 C3.87081517,2.00395672 3.09991427,2.64811323 2.93181818,3.53651749 L1.34090909,3.53651749 C1.1526302,3.53651749 1,3.68990557 1,3.87911935 C1,4.06833314 1.1526302,4.22172122 1.34090909,4.22172122 L2.93181818,4.22172122 C3.09534907,5.11310165 3.86873595,5.76013152 4.77066116,5.76013152 C5.67258637,5.76013152 6.44597324,5.11310165 6.60950413,4.22172122 L15.6590909,4.22172122 C15.8429621,4.21143201 15.9897616,4.06390353 16,3.87911935 C15.9946054,3.69219724 15.8450895,3.54193891 15.6590909,3.53651749 L6.60950413,3.53651749 C6.44517244,2.64588956 5.67199565,1.99983133 4.77066116,2.00000003 Z M4.77066116,2.68520376 C5.42678457,2.68520376 5.95867769,3.21973798 5.95867769,3.87911935 C5.95867769,4.53850073 5.42678457,5.07303494 4.77066116,5.07303494 C4.11453775,5.07303494 3.58264463,4.53850073 3.58264463,3.87911935 C3.58264463,3.56247325 3.7078103,3.25879615 3.93060661,3.03489354 C4.15340293,2.81099094 4.45557958,2.68520376 4.77066116,2.68520376 Z M12.2603306,6.61993427 C11.3589961,6.61976557 10.5858193,7.2658238 10.4214876,8.15645173 L1.34090909,8.15645173 C1.1526302,8.15645173 1,8.30983981 1,8.4990536 C1,8.68826738 1.1526302,8.84165546 1.34090909,8.84165546 L10.3904959,8.84165546 C10.5540268,9.73303589 11.3274136,10.3800658 12.2293388,10.3800658 C13.1312641,10.3800658 13.9046509,9.73303589 14.0681818,8.84165546 L15.6280992,8.84165546 C15.8163781,8.84165546 15.9690083,8.68826738 15.9690083,8.4990536 C15.9690083,8.30983981 15.8163781,8.15645173 15.6280992,8.15645173 L14.0991736,8.15645173 C13.9310775,7.26804747 13.1601766,6.62389096 12.2603306,6.61993427 Z M12.2603306,7.305138 C12.74263,7.29670727 13.1821247,7.58218926 13.3725346,8.02759099 C13.5629446,8.47299273 13.4664663,8.98988514 13.1283826,9.33566115 C12.7902988,9.68143717 12.2777319,9.78744717 11.8312588,9.60393463 C11.3847857,9.42042209 11.0930482,8.98382118 11.0929752,8.4990536 C11.0902233,8.18515734 11.211669,7.88302013 11.4305932,7.65911488 C11.6495174,7.43520963 11.9479851,7.3078794 12.2603306,7.305138 Z M4.77066116,11.2398685 C3.87081517,11.2438252 3.09991427,11.8879817 2.93181818,12.776386 L1.34090909,12.776386 C1.1526302,12.776386 1,12.9297741 1,13.1189878 C1,13.3082016 1.1526302,13.4615897 1.34090909,13.4615897 L2.93181818,13.4615897 C3.09534907,14.3529701 3.86873595,15 4.77066116,15 C5.67258637,15 6.44597324,14.3529701 6.60950413,13.4615897 L15.6590909,13.4615897 C15.8450895,13.4561683 15.9946054,13.30591 16,13.1189878 C15.9897616,12.9342037 15.8429621,12.7866752 15.6590909,12.776386 L6.60950413,12.776386 C6.44517244,11.885758 5.67199565,11.2396998 4.77066116,11.2398685 Z M4.77066116,11.9250722 C5.41992244,11.9256893 5.94843697,12.450009 5.95744002,13.1024318 C5.96644307,13.7548545 5.45259961,14.2937014 4.80360504,14.3124119 C4.15461047,14.3311225 3.61087368,13.8227656 3.58264463,13.1708972 C3.56854714,12.8453566 3.68746124,12.5281697 3.91180379,12.2929107 C4.13614634,12.0576517 4.44642252,11.9247641 4.77066116,11.9250722 Z"/>
</svg>
