<svg id="icon-info-circle" data-name="icon-info-circle" xmlns="http://www.w3.org/2000/svg" viewBox="0 0 17 17">
  <g>
    <path d="M8.5,1A7.5,7.5,0,1,0,16,8.5,7.508,7.508,0,0,0,8.5,1Zm0,13.917A6.417,6.417,0,1,1,14.917,8.5,6.424,6.424,0,0,1,8.5,14.917Z" />
    <path d="M10.4,12.386H9.041V7.235A.541.541,0,0,0,8.5,6.693H7.235a.541.541,0,0,0,0,1.083h.723v4.61H6.6a.541.541,0,1,0,0,1.083h3.8a.541.541,0,0,0,0-1.083Z" />
    <path d="M8.184,5.246a.858.858,0,1,0-.858-.858A.859.859,0,0,0,8.184,5.246Z" />
  </g>
</svg>
