<svg id="icon-wrench" data-name="icon-wrench" xmlns="http://www.w3.org/2000/svg" viewBox="0 0 17 17">
  <g>
    <path d="M15.973,3.106a.5.5,0,0,0-.8-.126L13.131,5.017H12.3V3.847L14.088,1.8a.5.5,0,0,0-.149-.773,4.865,4.865,0,0,0-5.6.878A4.786,4.786,0,0,0,7.288,7.145L1.038,13.39A1.82,1.82,0,1,0,3.61,15.966L9.853,9.723a4.8,4.8,0,0,0,6.119-6.617ZM14.387,7.982a3.787,3.787,0,0,1-4.412.695.5.5,0,0,0-.581.091L2.9,15.259A.82.82,0,1,1,1.745,14.1l6.5-6.491a.5.5,0,0,0,.092-.581,3.787,3.787,0,0,1,.709-4.413,3.864,3.864,0,0,1,3.831-.942L11.426,3.331a.5.5,0,0,0-.123.329V5.517a.5.5,0,0,0,.5.5h1.535a.5.5,0,0,0,.354-.146l1.654-1.65A3.789,3.789,0,0,1,14.387,7.982Z"/>
  </g>
</svg>
