<svg id="icon-hourglass" data-name="icon-hourglass" xmlns="http://www.w3.org/2000/svg" viewBox="0 0 17 17">
  <path d="M8.42948718,8.34903226 C8.58894612,8.34938594 8.73381627,8.26076692 8.79967949,8.12258065 L10.2011218,5.06967742 C10.2623018,4.95651039 10.2623018,4.82219929 10.2011218,4.70903226 C10.1207819,4.58597117 9.97350495,4.51752974 9.82211538,4.53290323 L7.03685897,4.53290323 C6.90129377,4.53383291 6.77518707,4.59917345 6.70080641,4.70702446 C6.62642575,4.81487548 6.61361451,4.95096421 6.66666667,5.06967742 L8.05929487,8.12258065 C8.12333177,8.26225768 8.26936121,8.35158585 8.42948718,8.34903226 Z M9.21394231,5.29612903 L8.42948718,6.97354839 L7.64503205,5.29612903 L9.21394231,5.29612903 Z M8.05929487,9.90064516 C8.1360685,9.780644 8.27303129,9.70740618 8.42067308,9.70740618 C8.56831486,9.70740618 8.70527765,9.780644 8.78205128,9.90064516 L11.0472756,13.5825806 C11.1263132,13.697147 11.1263132,13.8454337 11.0472756,13.96 C10.9775075,14.0784646 10.8462357,14.1521307 10.7035256,14.1529032 L6.19951923,14.1529032 C6.05415387,14.1533924 5.91963736,14.0797925 5.84695513,13.96 C5.77610318,13.843226 5.77610318,13.6993546 5.84695513,13.5825806 L8.05929487,9.90064516 Z M6.89583333,13.3896774 L9.97195513,13.3896774 L8.42948718,10.8735484 L6.89583333,13.3896774 Z M13.5945513,14.2283871 C13.8184744,14.2283871 14,14.4011185 14,14.6141935 C14,14.8272686 13.8184744,15 13.5945513,15 L3.40544872,15 C3.18152557,15 3,14.8272686 3,14.6141935 C3,14.4011185 3.18152557,14.2283871 3.40544872,14.2283871 L3.97836538,14.2283871 L6.62259615,8.5 L3.97836538,2.7716129 L3.40544872,2.7716129 C3.18152557,2.7716129 3,2.59888147 3,2.38580645 C3,2.17273143 3.18152557,2 3.40544872,2 L13.5945513,2 C13.8184744,2 14,2.17273143 14,2.38580645 C14,2.59888147 13.8184744,2.7716129 13.5945513,2.7716129 L12.8894231,2.7716129 L10.2451923,8.5 L12.8894231,14.2283871 L13.5945513,14.2283871 Z M4.85096154,14.2283871 L12.0080128,14.2283871 L9.46073718,8.65096774 C9.41658653,8.55470676 9.41658653,8.44529324 9.46073718,8.34903226 L12.0080128,2.7716129 L4.85096154,2.7716129 L7.40705128,8.34903226 C7.45120193,8.44529324 7.45120193,8.55470676 7.40705128,8.65096774 L4.85096154,14.2283871 Z"/>
</svg>
