<svg id="icon-pin-off" data-name="icon-pin-off" xmlns="http://www.w3.org/2000/svg" viewBox="0 0 17 17">
  <path d="M9.454,1,8.343,2.083,9.716,4.308,6.386,7.342l-.652-.651a2.459,2.459,0,0,0-1.77-.775,3.756,3.756,0,0,0-2.34,1.032l-.3.291,3.79,3.784.159.159L1.044,15.417,1.627,16l4.232-4.233.064.064L9.6,15.505l.291-.29a3.687,3.687,0,0,0,1.042-2.327,2.478,2.478,0,0,0-.786-1.782l-.537-.539,3.034-3.331,2.225,1.37L15.956,7.5Zm5.287,6.562L12.494,6.179,8.472,10.594l1.093,1.1a1.649,1.649,0,0,1,.545,1.2,2.385,2.385,0,0,1-.4,1.217c-.048.075-.1.147-.141.208L6.507,11.249l-.8-.806L2.531,7.274a2.646,2.646,0,0,1,1.438-.534,1.62,1.62,0,0,1,1.183.535L6.36,8.48l4.416-4.022L9.39,2.211l.056-.055L14.8,7.5Z" />
</svg>
