<svg id="icon-steps-ok" data-name="icon-steps-ok" xmlns="http://www.w3.org/2000/svg" viewBox="0 0 17 17">
  <path d="M16.7875909,1.11126796 C16.9058785,1.18265543 16.983947,1.30761264 16.9977971,1.44772607 C17.0116472,1.58783951 16.9596215,1.72634181 16.8577134,1.82065551 L8.19257413,12.5128737 C7.99514098,12.7713124 7.70035414,12.9319202 7.38115646,12.9549558 L7.26094643,12.9549558 C6.97468347,12.9619972 6.69612542,12.8593719 6.47958127,12.6670884 L3.85499573,10.3024632 C3.65859151,10.1264443 3.63840907,9.82034808 3.80991699,9.6187781 C3.9814249,9.41720811 4.27967662,9.39649483 4.47608086,9.57251368 L7.13071891,11.9577008 C7.18674266,11.9962755 7.25378372,12.0143819 7.32105145,12.0091057 C7.38845467,12.0064059 7.44943065,11.9672936 7.48133148,11.9062959 L16.1264358,1.18323481 C16.2032997,1.08144219 16.3172875,1.01622194 16.4420688,1.00263947 C16.56685,0.989057008 16.691632,1.02828713 16.7875909,1.11126796 Z M15.4953331,5.04888292 L15.2849656,5.30590739 C15.3943653,5.26432959 15.4743122,5.16665142 15.4953331,5.04888292 Z M6.32931874,9.90150501 L5.57800609,9.22296039 L8.32280165,9.22296039 L7.77183904,9.90150501 L6.32931874,9.90150501 Z M15.1948081,13.797996 L8.12245161,13.797996 C7.91168961,13.9014335 7.68417345,13.9641649 7.45127897,13.9830537 L7.29099894,13.9830537 C7.01089515,13.9802617 6.73447453,13.9172193 6.47958127,13.797996 C6.27513803,13.7139159 6.08560239,13.5958141 5.91860116,13.4484428 L4.53618587,12.2866921 C3.70750748,12.3437922 3.01839149,12.962628 2.85324552,13.797996 L1.31055021,13.797996 C1.1327076,13.8189891 0.998835163,13.9741108 1.00000764,14.1578303 C1.01562124,14.338746 1.16363467,14.4772489 1.34060271,14.4765407 L2.85324552,14.4765407 C3.01182048,15.3592583 3.76176925,16 4.63636089,16 C5.51095254,16 6.2609013,15.3592583 6.41947626,14.4765407 L15.1948081,14.4765407 C15.3581418,14.4615104 15.4860497,14.3258626 15.4953331,14.1578303 C15.4971335,13.9775575 15.3686698,13.8237412 15.1948081,13.797996 Z M4.63636089,15.3298619 C4.16455536,15.3297899 3.73962461,15.0369486 3.56100173,14.5887775 C3.38237886,14.1406063 3.4855248,13.626078 3.82202999,13.2866766 C4.15853518,12.9472751 4.66159524,12.8503799 5.09510858,13.0414669 C5.52862191,13.2325538 5.80652571,13.6736875 5.79839113,14.1578303 C5.79574585,14.4714028 5.67182908,14.7710524 5.45390362,14.9908535 C5.23597815,15.2106546 4.94189711,15.3326005 4.63636089,15.3298619 Z M15.1948081,9.22296039 C15.361309,9.24742972 15.4874201,9.38980062 15.4953331,9.5622327 C15.496043,9.73819509 15.3655526,9.8855098 15.1948081,9.90150501 L13.6821653,9.90150501 C13.5233942,10.7853599 12.7747541,11.428513 11.8990499,11.4333709 C11.4679292,11.4329567 11.0515536,11.2722525 10.7270022,10.9810078 L11.1477372,10.4566779 C11.3568799,10.6425198 11.6224905,10.7479238 11.8990499,10.7548263 C12.2063263,10.7548382 12.5008736,10.6288632 12.7172082,10.404908 C12.9335428,10.1809528 13.0537346,9.87757902 13.0510626,9.5622327 C13.0437657,9.20520291 12.8822743,8.86995821 12.6102925,8.64722557 L13.0310276,8.12289564 C13.3679991,8.39902017 13.5987037,8.78878402 13.6821653,9.22296039 L15.1948081,9.22296039 Z M1.34060271,9.90150501 C1.16363467,9.90221328 1.01562124,9.76371036 1.00000764,9.58279466 C0.998835163,9.39907512 1.1327076,9.24395342 1.31055021,9.22296039 L2.84322802,9.22296039 C2.73779577,9.43324994 2.67960505,9.66510882 2.67293049,9.90150501 L1.34060271,9.90150501 Z M1.34060271,5.32646935 L2.85324552,5.32646935 C3.01182048,6.20918695 3.76176925,6.84992869 4.63636089,6.84992869 C5.51095254,6.84992869 6.2609013,6.20918695 6.41947626,5.32646935 L11.4883323,5.32646935 L12.0292774,4.64792474 L6.41947626,4.64792474 C6.2609013,3.76520714 5.51095254,3.1244654 4.63636089,3.1244654 C3.76176925,3.1244654 3.01182048,3.76520714 2.85324552,4.64792474 L1.31055021,4.64792474 C1.1327076,4.66891777 0.998835163,4.82403946 1.00000764,5.007759 C1.01562124,5.1886747 1.16363467,5.32717762 1.34060271,5.32646935 Z M4.63636089,3.80488446 C5.10726609,3.80490242 5.53160447,4.09659349 5.7108619,4.54349864 C5.89011932,4.9904038 5.78885105,5.50415607 5.45443246,5.84441169 C5.12001386,6.18466731 4.61856982,6.28414722 4.18468608,6.09631268 C3.75080234,5.90847815 3.47027113,5.47046987 3.47433065,4.98719704 C3.47431904,4.6718388 3.59706561,4.36954436 3.81528136,4.14751982 C4.03349711,3.92549529 4.32909615,3.80214221 4.63636089,3.80488446 Z"/>
</svg>
