<svg id="icon-pencil" data-name="icon-pencil" xmlns="http://www.w3.org/2000/svg" viewBox="0 0 17 17">
  <path d="M16.072,2.312,14.5.715a1.674,1.674,0,0,0-2.383.249L1.739,11.2a.377.377,0,0,0-.1.173L.554,15.6a.375.375,0,0,0,.363.469.4.4,0,0,0,.089-.011l4.235-1.029a.376.376,0,0,0,.175-.1L15.792,4.69A1.67,1.67,0,0,0,16.072,2.312ZM2.533,11.473l8.778-8.662,2.623,2.658L5.156,14.133Zm9.311-9.188.265-.261,2.623,2.658-.265.261ZM2.2,12.2l2.22,2.251-2.985.726ZM15.265,4.156,12.642,1.5c.32-.316.938-.643,1.322-.255l1.575,1.6C15.922,3.228,15.586,3.839,15.265,4.156Z"/>
</svg>
