<svg id="icon-edit" data-name="icon-edit" xmlns="http://www.w3.org/2000/svg" viewBox="0 0 17 17">
  <g>
    <path d="M16.056,7.625H13.448a.375.375,0,0,0,0,.75h2.233v4.939H1.431V8.375H5.3a.375.375,0,0,0,0-.75H1.056A.375.375,0,0,0,.681,8V13.69a.375.375,0,0,0,.375.375h15a.375.375,0,0,0,.375-.375V8A.375.375,0,0,0,16.056,7.625Z"/>
    <path d="M6.487,11.479a.376.376,0,0,0,.155-.033l2.846-1.293a.391.391,0,0,0,.11-.076l5.689-5.69a.377.377,0,0,0,0-.53L13.477,2.045a.387.387,0,0,0-.531,0L7.256,7.735a.376.376,0,0,0-.09.146l-1.035,3.1a.375.375,0,0,0,.355.494ZM8.053,8l4.124-4.125,1.28,1.281L9.333,9.28Zm5.159-5.16,1.28,1.28-.5.5-1.28-1.281ZM7.686,8.695l1,1-1.569.713Z"/>
  </g>
</svg>
