<svg id="icon-refresh" data-name="icon-refresh" xmlns="http://www.w3.org/2000/svg" viewBox="0 0 17 17">
  <g>
    <path d="M9.3,1.291A7.323,7.323,0,0,0,4.017,3.85,7.211,7.211,0,0,0,2.311,8.086L1.038,6.276A.451.451,0,1,0,.3,6.8L2.435,9.829a.453.453,0,0,0,.358.191H2.8a.451.451,0,0,0,.355-.173L5.541,6.814a.451.451,0,0,0-.71-.557L3.206,8.326A6.34,6.34,0,0,1,4.7,4.435,6.425,6.425,0,0,1,9.335,2.192a6.354,6.354,0,0,1,6.541,6.077A6.314,6.314,0,0,1,3.837,11.153a.45.45,0,0,0-.817.379,7.2,7.2,0,0,0,6.543,4.182c.09,0,.181,0,.271,0A7.215,7.215,0,1,0,9.3,1.291Z"/>
  </g>
</svg>
