<svg id="icon-list-check" data-name="icon-list-check" xmlns="http://www.w3.org/2000/svg" viewBox="0 0 17 17">
  <g>
    <path d="M7.067,1.64,3.231,5.475,1.893,4.138a.463.463,0,1,0-.655.655L2.9,6.458a.463.463,0,0,0,.655,0L7.722,2.3a.463.463,0,0,0-.655-.655Z"/>
    <path d="M7.067,9.55,3.231,13.386,1.893,12.049a.463.463,0,0,0-.655.655L2.9,14.368a.463.463,0,0,0,.655,0l4.164-4.163a.463.463,0,0,0-.655-.655Z"/>
    <path d="M9.059,6.178h6.661a.463.463,0,0,0,0-.927H9.059a.463.463,0,0,0,0,.927Z"/>
    <path d="M15.721,12.458H9.059a.463.463,0,1,0,0,.927h6.661a.463.463,0,0,0,0-.927Z"/>
  </g>
</svg>
