<svg id="icon-card" data-name="icon-card" xmlns="http://www.w3.org/2000/svg" viewBox="0 0 17 17">
  <path d="M14.7024082,3.00616723 L2.29338737,3.00616723 C1.58632596,3.00608805 1.01024726,3.61149659 1,4.36540474 L1,12.6407625 C1.01024726,13.3946706 1.58632596,14.0000792 2.29338737,14 L14.7024082,14 C15.0454359,14 15.374414,13.8546891 15.6169712,13.596034 C15.8595284,13.3373789 15.9957956,12.9865673 15.9957956,12.6207737 L15.9957956,4.36540474 C16.0253601,3.99256331 15.8979118,3.62501072 15.6479945,3.36236941 C15.3980772,3.09972811 15.0515763,2.96920127 14.7024082,3.00616723 Z M2.10593993,13.2104429 C1.86265767,13.2104429 1.66543843,13.0001347 1.66543843,12.7407064 L1.66543843,4.2654608 C1.66543843,4.0060325 1.86265767,3.79572431 2.10593993,3.79572431 L14.8898557,3.79572431 C15.1331379,3.79572431 15.3303572,4.0060325 15.3303572,4.2654608 L15.3303572,12.7407064 C15.3303572,12.8652883 15.2839473,12.9847676 15.2013373,13.0728603 C15.1187272,13.160953 15.0066839,13.2104429 14.8898557,13.2104429 L2.10593993,13.2104429 Z M11.8625794,9.92228748 L8.3291951,9.92228748 L8.3291951,10.5419399 L11.8625794,10.5419399 L11.8625794,9.92228748 Z M14.4399818,6.77405355 L8.3291951,6.77405355 L8.3291951,7.39370595 L14.4399818,7.39370595 L14.4399818,6.77405355 Z M14.4399818,8.34317332 L8.3291951,8.34317332 L8.3291951,8.97282011 L14.4399818,8.97282011 L14.4399818,8.34317332 Z M4.8412607,6.42424978 C3.62927806,6.50275595 2.68774414,7.47499758 2.68774414,8.64800232 C2.68774414,9.82100706 3.62927806,10.7932487 4.8412607,10.8717549 C6.10384877,10.8663363 7.12758362,9.88219984 7.13889493,8.66299391 C7.14441751,8.07638915 6.90696707,7.5119754 6.47935892,7.09529335 C6.05175077,6.6786113 5.46944434,6.44421433 4.8619601,6.44423857 L4.8412607,6.42424978 Z M4.8412607,10.1521585 C4.05287194,10.0641021 3.45801608,9.419398 3.45801608,8.65299952 C3.45801608,7.88660104 4.05287194,7.24189691 4.8412607,7.1538405 C5.68846208,7.15355341 6.38162359,7.80518683 6.40406596,8.62301634 C6.40960427,9.02141926 6.24958111,9.40534955 5.95977771,9.6889603 C5.6699743,9.97257104 5.2745638,10.1322056 4.8619601,10.1321697 L4.8412607,10.1521585 Z"/>
</svg>
