<svg id="icon-clip" data-name="icon-clip" xmlns="http://www.w3.org/2000/svg" viewBox="0 0 17 17">
  <path d="M5.71926339,14.1228082 C5.23958401,13.545353 4.98414019,12.8102794 5.00084231,12.055456 L5.00084231,5.80987861 C4.98056337,4.82225819 5.32708708,3.86298251 5.97168161,3.12232071 C6.62639364,2.40246174 7.54957461,1.99513939 8.51528059,2.00004378 C9.48515799,2.0056616 10.4093756,2.41858107 11.0679986,3.14054028 C11.7266216,3.86249949 12.0607549,4.82893978 11.9908853,5.80987861 L11.9908853,11.0274819 C12.0133604,11.1589007 11.9567439,11.2913073 11.8467794,11.364496 C11.7368148,11.4376848 11.5944934,11.4376848 11.4845289,11.364496 C11.3745644,11.2913073 11.3179479,11.1589007 11.340423,11.0274819 L11.340423,5.80987861 C11.3907727,5.01155155 11.1196001,4.22666175 10.5889317,3.63474077 C10.0582634,3.04281979 9.31349786,2.69450646 8.52498899,2.66947212 C7.73946918,2.65652868 6.98631837,2.98639502 6.45710127,3.57516929 C5.9268548,4.19437869 5.64000967,4.98988398 5.65130464,5.80987861 L5.65130464,12.055456 C5.63463573,12.6471573 5.83139303,13.2247049 6.20468305,13.6798041 C6.56915855,14.1072741 7.10390074,14.3458601 7.660942,14.3295434 C8.1899346,14.3514514 8.69783138,14.1176839 9.02982542,13.6994932 C9.37123529,13.2228965 9.54553378,12.6441508 9.52495347,12.055456 L9.52495347,7.28655877 C9.52495347,6.64666404 9.35020239,5.88863488 8.55411416,5.88863488 C8.24545962,5.86503209 7.94713419,6.00694983 7.76773433,6.26272719 C7.57525055,6.5532238 7.47683949,6.89733101 7.48619093,7.24718064 L7.48619093,11.8642673 C7.45875991,12.0246648 7.3215,12.1417899 7.16095976,12.1417899 C7.00041953,12.1417899 6.86315961,12.0246648 6.8357286,11.8642673 L6.8357286,7.28655877 C6.811733,6.77950011 6.95148065,6.27834 7.23377271,5.85910128 C7.54326245,5.43852258 8.03698339,5.199244 8.55411416,5.21920654 C9.59291222,5.21920654 10.204541,5.98708023 10.204541,7.28655877 L10.204541,12.055456 C10.2265544,12.7934885 10.0044143,13.5177705 9.57349544,14.1129636 C9.1142772,14.6928564 8.41347228,15.0208406 7.68035879,14.9989717 C6.9186386,15.0082271 6.20939124,14.6881862 5.71926339,14.1228082 Z"/>
</svg>
