<svg id="icon-truck-clock" data-name="icon-truck-clock" xmlns="http://www.w3.org/2000/svg" viewBox="0 0 17 17">
  <path d="M8.32643819,13.8560636 L11.1071773,13.8560636 L11.1071773,7.49012426 L8.22259122,7.49012426 C7.97564775,7.49012426 7.77522986,7.2884026 7.77522986,7.0398527 C7.77522986,6.79130279 7.97564775,6.58958113 8.22259122,6.58958113 L11.5545386,6.58958113 C11.8014821,6.58958113 12.0019,6.79130279 12.0019,7.0398527 L12.0019,8.26639244 L13.7754193,8.26639244 C13.8944175,8.26639244 14.0080472,8.31412122 14.0921512,8.39877228 L16.8693705,11.1931576 C16.8884176,11.2125347 16.9055894,11.233469 16.9207464,11.2556581 C16.9469931,11.293828 16.9675324,11.336272 16.981119,11.3817365 C16.993649,11.4246471 17,11.4675467 17,11.5110493 L17,14.3063352 C17,14.5548851 16.7995821,14.7566068 16.5526386,14.7566068 L15.26814,14.7566068 C15.0754675,15.4028849 14.4793885,15.8747211 13.7758667,15.8747211 C13.072443,15.8747211 12.476432,15.4030164 12.283674,14.7568769 L11.5547176,14.7568769 L11.5547176,14.7566067 C11.5546579,14.7566067 11.5545983,14.7566068 11.5545386,14.7566068 L8.32634433,14.7566068 C8.13367183,15.4028849 7.53759282,15.8747211 6.83407104,15.8747211 C6.13054926,15.8747211 5.53447025,15.4028849 5.34179775,14.7566068 L3.78002453,14.7566068 C3.53308106,14.7566068 3.33266317,14.5548851 3.33266317,14.3063352 L3.33266317,8.99583237 C3.33266317,8.74728247 3.53308106,8.54556081 3.78002453,8.54556081 C4.026968,8.54556081 4.22738588,8.74728247 4.22738588,8.99583237 L4.22738588,13.8560636 L5.34170389,13.8560636 C5.5342766,13.2101189 6.13043498,12.7381294 6.83407104,12.7381294 C7.5377071,12.7381294 8.13386549,13.2101189 8.32643819,13.8560636 Z M15.2682338,13.8560636 L16.1052773,13.8560636 L16.1052773,11.9617712 L12.0019,11.9617712 L12.0019,13.8563338 L12.283419,13.8563338 C12.475906,13.2102505 13.0721325,12.7381294 13.7758667,12.7381294 C14.4795028,12.7381294 15.0756611,13.2101189 15.2682338,13.8560636 Z M15.472261,11.061228 L13.5902117,9.16693556 L12.0019,9.16693556 L12.0019,11.061228 L15.472261,11.061228 Z M2.66895786,11.402804 L0.447361357,11.402804 C0.200417888,11.402804 1.77635684e-15,11.2010824 1.77635684e-15,10.9525325 C1.77635684e-15,10.7039826 0.200417888,10.5022609 0.447361357,10.5022609 L2.66895786,10.5022609 C2.91590133,10.5022609 3.11631922,10.7039826 3.11631922,10.9525325 C3.11631922,11.2010824 2.91590133,11.402804 2.66895786,11.402804 Z M2.66895786,12.5207383 L1.55860697,12.5207383 C1.3116635,12.5207383 1.11124561,12.3190166 1.11124561,12.0704667 C1.11124561,11.8219168 1.3116635,11.6201952 1.55860697,11.6201952 L2.66895786,11.6201952 C2.91590133,11.6201952 3.11631922,11.8219168 3.11631922,12.0704667 C3.11631922,12.3190166 2.91590133,12.5207383 2.66895786,12.5207383 Z M2.66895786,13.6386725 L2.11333505,13.6386725 C1.86639158,13.6386725 1.6659737,13.4369509 1.6659737,13.188401 C1.6659737,12.939851 1.86639158,12.7381294 2.11333505,12.7381294 L2.66895786,12.7381294 C2.91590133,12.7381294 3.11631922,12.939851 3.11631922,13.188401 C3.11631922,13.4369509 2.91590133,13.6386725 2.66895786,13.6386725 Z M3.77966664,8.0494516 C1.84885502,8.0494516 0.277721931,6.46809787 0.277721931,4.5247258 C0.277721931,2.58135373 1.84885502,1 3.77966664,1 C5.71047826,1 7.28161134,2.58135373 7.28161134,4.5247258 C7.28161134,6.46809787 5.71047826,8.0494516 3.77966664,8.0494516 Z M3.77966664,1.90054313 C2.34184723,1.90054313 1.17244465,3.07755299 1.17244465,4.5247258 C1.17244465,5.9718986 2.34184723,7.14890847 3.77966664,7.14890847 C5.21748604,7.14890847 6.38688863,5.9718986 6.38688863,4.5247258 C6.38688863,3.07755299 5.21748604,1.90054313 3.77966664,1.90054313 Z M4.89046489,5.25425579 L3.780114,5.25425579 C3.53227581,5.25425579 3.33275264,5.05253413 3.33275264,4.80398422 L3.33275264,3.12717292 C3.33275264,2.87862302 3.53227581,2.67690136 3.780114,2.67690136 C4.02705747,2.67690136 4.22747536,2.87862302 4.22747536,3.12717292 L4.22747536,4.35371266 L4.89046489,4.35371266 C5.13740836,4.35371266 5.33782624,4.55543432 5.33782624,4.80398422 C5.33782624,5.05253413 5.13740836,5.25425579 4.89046489,5.25425579 Z M13.7758667,13.6386725 C13.4099251,13.6386725 13.1128772,13.9385534 13.1128772,14.305975 C13.1128772,14.6742971 13.4099251,14.974178 13.7758667,14.974178 C14.1418083,14.974178 14.4388562,14.6742971 14.4388562,14.305975 C14.4388562,13.9385534 14.1418083,13.6386725 13.7758667,13.6386725 Z M6.83407104,13.6386725 C6.46812945,13.6386725 6.17108151,13.9385534 6.17108151,14.305975 C6.17108151,14.6742971 6.46812945,14.974178 6.83407104,14.974178 C7.20001263,14.974178 7.49706057,14.6742971 7.49706057,14.305975 C7.49706057,13.9385534 7.20001263,13.6386725 6.83407104,13.6386725 Z"/>
</svg>
