<svg id="icon-points-v" data-name="icon-points-v" xmlns="http://www.w3.org/2000/svg" viewBox="0 0 17 17">
  <path d="M9,10.5238095 C7.8954305,10.5238095 7,9.61771914 7,8.5 C7,7.38228086 7.8954305,6.47619048 9,6.47619048 C10.1045695,6.47619048 11,7.38228086 11,8.5 C11,9.61771914 10.1045695,10.5238095 9,10.5238095 Z M9,17 C7.8954305,17 7,16.0939096 7,14.9761905 C7,13.8584713 7.8954305,12.952381 9,12.952381 C10.1045695,12.952381 11,13.8584713 11,14.9761905 C11,16.0939096 10.1045695,17 9,17 Z M9,4.04761905 C7.8954305,4.04761905 7,3.14152866 7,2.02380952 C7,0.906090387 7.8954305,8.8817842e-16 9,8.8817842e-16 C10.1045695,8.8817842e-16 11,0.906090387 11,2.02380952 C11,3.14152866 10.1045695,4.04761905 9,4.04761905 Z"/>
</svg>
