<svg id="icon-backward" data-name="icon-backward" xmlns="http://www.w3.org/2000/svg" viewBox="0 0 17 17">
  <path d="M7.611,3.071a.8.8,0,0,0-.873.157L1.255,7.909A.8.8,0,0,0,1.235,9.04l.021.021.037.03,5.447,4.681A.765.765,0,0,0,7.3,14a1,1,0,0,0,.31-.069.792.792,0,0,0,.506-.749V3.82A.8.8,0,0,0,7.611,3.071ZM15.483,13.93a.848.848,0,0,0,.506-.749V3.82a.792.792,0,0,0-.506-.749.835.835,0,0,0-.873.157L9.128,7.909a.79.79,0,0,0-.243.577.822.822,0,0,0,.243.577l.035.035,5.447,4.681a.765.765,0,0,0,.562.227A1.041,1.041,0,0,0,15.483,13.93ZM7.069,12.669,2.2,8.5,7.066,4.328Zm7.856-8.344V12.67L10.054,8.5Z"/>
</svg>
