<svg id="icon-location-slash" data-name="icon-location-slash" xmlns="http://www.w3.org/2000/svg" viewBox="0 0 17 17">
  <path d="M15.012,13.415l-3.18-3.18A8.3,8.3,0,0,0,12.9,6.98a5.01,5.01,0,0,0-5-5.005,4.956,4.956,0,0,0-3.165,1.16L2.756,1.159a.543.543,0,0,0-.768.768L3.972,3.911A4.956,4.956,0,0,0,2.892,6.98c0,2.57,4.1,8.17,4.569,8.8a.543.543,0,0,0,.872,0A47.729,47.729,0,0,0,11.3,11.236l2.947,2.947a.543.543,0,1,0,.768-.768ZM7.9,3.061A3.923,3.923,0,0,1,11.815,6.98a6.548,6.548,0,0,1-.8,2.442L9.844,8.247A2.322,2.322,0,0,0,6.629,5.032L5.5,3.9A3.879,3.879,0,0,1,7.9,3.061ZM6.72,6.659l1.5,1.5a1.2,1.2,0,0,1-.321.065A1.243,1.243,0,0,1,6.655,6.98,1.2,1.2,0,0,1,6.72,6.659Zm.71-.826A1.229,1.229,0,0,1,7.9,5.739,1.243,1.243,0,0,1,9.138,6.98a1.23,1.23,0,0,1-.094.466Zm.466,8.7C6.5,12.562,3.978,8.659,3.978,6.98a3.884,3.884,0,0,1,.762-2.3L5.887,5.826A2.3,2.3,0,0,0,5.569,6.98,2.33,2.33,0,0,0,7.9,9.308,2.3,2.3,0,0,0,9.05,8.989l1.443,1.443A45.88,45.88,0,0,1,7.9,14.531Z"/>
</svg>
