<svg id="icon-comment" data-name="icon-comment" xmlns="http://www.w3.org/2000/svg" viewBox="0 0 17 17">
  <path d="M14.4211395,2.00000034 L2.56846067,2.00000034 C1.71310891,1.99985451 1.01536559,2.72378949 1,3.62733737 L1,10.9305084 C1.00516529,11.8473052 1.71008335,12.5876301 2.57785265,12.5876138 L12.7305831,12.5876138 C12.9481506,12.5948271 13.1555262,12.6867061 13.3128859,12.8456063 C13.6603891,13.2028266 14.1581641,13.7088887 14.5808032,14.1256458 L15.144322,14.6713991 C15.3321616,14.8500092 15.4730413,14.9889282 15.6327049,14.9889282 C15.6913669,15.0036906 15.7524906,15.0036906 15.8111526,14.9889282 C15.9284377,14.9173942 16.0002044,14.7847045 15.9989922,14.6416307 L15.9989922,3.72656524 C16.014293,3.27421916 15.854835,2.83474572 15.5572556,2.50911955 C15.2596762,2.18349338 14.8495612,1.99971157 14.4211395,2.00000034 Z M15.2758097,13.7485799 C14.9564824,13.4310507 14.4774914,12.9547569 13.8200528,12.2800074 C13.5284016,11.9803216 13.1374244,11.8129554 12.7305831,11.8136365 L2.57785265,11.8136365 C2.11508184,11.8085809 1.73824889,11.4192006 1.72318247,10.9305084 L1.72318247,3.62733737 C1.72318247,3.13411903 2.10162641,2.73428656 2.56846067,2.73428656 L14.4211395,2.73428656 C14.8879738,2.73428656 15.2664177,3.13411903 15.2664177,3.62733737 L15.2758097,13.7485799 Z M6.45674042,8.00328634 C6.83539488,8.00328634 7.14235496,7.67897778 7.14235496,7.2789229 C7.14235496,6.87886803 6.83539488,6.55455947 6.45674042,6.55455947 C6.07808596,6.55455947 5.77112587,6.87886803 5.77112587,7.2789229 C5.77112587,7.67897778 6.07808596,8.00328634 6.45674042,8.00328634 Z M8.50419207,8.00328634 C8.88284653,8.00328634 9.18980662,7.67897778 9.18980662,7.2789229 C9.18980662,6.87886803 8.88284653,6.55455947 8.50419207,6.55455947 C8.12553761,6.55455947 7.81857753,6.87886803 7.81857753,7.2789229 C7.81857753,7.67897778 8.12553761,8.00328634 8.50419207,8.00328634 Z M10.5422517,8.00328634 C10.9209062,8.00328634 11.2278663,7.67897778 11.2278663,7.2789229 C11.2278663,6.87886803 10.9209062,6.55455947 10.5422517,6.55455947 C10.1635973,6.55455947 9.8566372,6.87886803 9.8566372,7.2789229 C9.8566372,7.67897778 10.1635973,8.00328634 10.5422517,8.00328634 Z"/>
</svg>
