<svg id="icon-pencil-fill" data-name="icon-pencil-fill" xmlns="http://www.w3.org/2000/svg" viewBox="0 0 17 17">
  <path d="M16.069,2.619l-1.575-1.6a1.36,1.36,0,0,0-1.26-.368,2.234,2.234,0,0,0-1.122.618L1.736,11.512a.377.377,0,0,0-.1.173L.552,15.906a.375.375,0,0,0,.363.469A.4.4,0,0,0,1,16.364l4.235-1.029a.376.376,0,0,0,.175-.1L15.79,5A1.67,1.67,0,0,0,16.069,2.619Zm-4.494.237.531-.524L14.731,4.99l-.532.525ZM2.2,12.513l2.22,2.25-2.985.726Zm13.066-8.05L12.64,1.8a1.506,1.506,0,0,1,.735-.414.612.612,0,0,1,.586.159l1.575,1.6a.612.612,0,0,1,.151.588A1.5,1.5,0,0,1,15.264,4.463Z" />
</svg>
