<svg id="icon-house" data-name="icon-house" xmlns="http://www.w3.org/2000/svg" viewBox="0 0 17 17">
  <g>
    <path d="M15.793,7.455a.464.464,0,0,0,.464-.464V5.734a.463.463,0,0,0-.275-.423L8.689,2.041a.461.461,0,0,0-.379,0L1.018,5.31a.463.463,0,0,0-.275.423V6.991a.464.464,0,0,0,.464.464h.541v6.616H1.207a.464.464,0,0,0,0,.929H15.793a.464.464,0,0,0,0-.929h-.541V7.455ZM1.671,6.034,8.5,2.973l6.829,3.061v.492H1.671Zm2.515,8.037V8.964h8.628v5.107Zm10.137,0h-.58V8.5a.464.464,0,0,0-.464-.464H3.722a.464.464,0,0,0-.464.464v5.571h-.58V7.455H14.323Z"/>
    <path d="M11.77,9.545H5.231a.464.464,0,1,0,0,.929H11.77a.464.464,0,1,0,0-.929Z"/>
    <path d="M11.77,11.054H5.231a.464.464,0,1,0,0,.929H11.77a.464.464,0,1,0,0-.929Z"/>
    <path d="M11.77,12.563H5.231a.464.464,0,0,0,0,.929H11.77a.464.464,0,1,0,0-.929Z"/>
  </g>
</svg>
