<svg id="icon-arrow-long-left" data-name="icon-arrow-long-left" xmlns="http://www.w3.org/2000/svg" viewBox="0 0 17 17">
  <path d="M4.40909091,4 C4.32571034,4 4.24993341,4.03253408 4.19069602,4.08609694 C4.11617159,4.15348269 1.09820865,7.22341704 1.07457386,7.25446429 C1.02632914,7.31783971 1,7.40143024 1,7.48979592 C1,7.57492288 1.0294721,7.65135878 1.07457386,7.71364796 C1.10172705,7.75114876 4.17471591,10.8762755 4.17471591,10.8762755 C4.30423443,11.0094667 4.53639352,11.0049243 4.65944602,10.8647959 C4.78249852,10.7246659 4.77403307,10.4744716 4.64346591,10.3424745 L2.19850852,7.85714286 L10.8863636,7.85714286 C13.252068,7.85714286 15.2575128,9.99193 15.3181818,12.6326531 C15.3181818,12.8355331 15.4708121,13 15.6590909,13 C15.8473697,13 16,12.8355331 16,12.6326531 C16,12.4968074 15.9840199,12.2653061 15.9840199,12.2653061 C15.753341,9.39732094 13.5252605,7.12244898 10.8863636,7.12244898 L2.19850852,7.12244898 C2.19850852,7.12244898 4.60236011,4.68908739 4.66477273,4.61415816 C4.71894506,4.54912159 4.75,4.46161716 4.75,4.36734694 C4.75,4.16446692 4.59736972,4 4.40909091,4 Z"/>
</svg>
