<svg id="icon-card-up" data-name="icon-card-up" xmlns="http://www.w3.org/2000/svg" viewBox="0 0 17 17">
  <path d="M14.27,1.00026624 L2.73000002,1.00026624 C2.27395671,0.992181922 1.83380786,1.16849733 1.50847788,1.48958519 C1.18314789,1.81067306 0.999928994,2.24959703 1.00000002,2.70770801 L1.00000002,10.0898827 C1.00000002,11.0328768 1.76111594,11.7973245 2.70000002,11.7973245 L6.14000001,11.7973245 C6.27933359,11.7973245 6.40808314,11.7226655 6.47774993,11.6014709 C6.54741673,11.4802762 6.54741673,11.3309583 6.47774993,11.2097636 C6.40808314,11.088569 6.27933359,11.01391 6.14000001,11.01391 L2.73000002,11.01391 C2.22189805,11.01391 1.81000002,10.6002089 1.81000002,10.0898827 L1.81000002,4.42519355 L15.19,4.42519355 L15.19,10.0898827 C15.19,10.6002089 14.778102,11.01391 14.27,11.01391 L10.34,11.01391 C10.2006664,11.01391 10.0719169,11.088569 10.0022501,11.2097636 C9.93258327,11.3309583 9.93258327,11.4802762 10.0022501,11.6014709 C10.0719169,11.7226655 10.2006664,11.7973245 10.34,11.7973245 L14.27,11.7973245 C14.7260433,11.8054088 15.1661921,11.6290934 15.4915221,11.3080055 C15.8168521,10.9869177 16.000071,10.5479937 16,10.0898827 L16,2.70770801 C16.000071,2.24959703 15.8168521,1.81067306 15.4915221,1.48958519 C15.1661921,1.16849733 14.7260433,0.992181922 14.27,1.00026624 Z M1.81000002,3.63173532 L1.81000002,2.70770801 C1.81000002,2.19738182 2.22189805,1.7836807 2.73000002,1.7836807 L14.27,1.7836807 C14.778102,1.7836807 15.19,2.19738182 15.19,2.70770801 L15.19,3.63173532 L1.81000002,3.63173532 Z M10.58,9.53747509 L8.67,7.56889517 L8.67,16.6082928 C8.66473411,16.8223977 8.49317176,16.9947111 8.28,17 C8.17656557,17 8.07736754,16.958731 8.00422836,16.8852716 C7.93108917,16.8118123 7.89,16.71218 7.89,16.6082928 L7.89,7.56889517 L5.89000001,9.57765019 C5.73787374,9.7295909 5.49212628,9.7295909 5.34000001,9.57765019 C5.26480168,9.50562444 5.22224989,9.40581167 5.22224989,9.30144637 C5.22224989,9.19708108 5.26480168,9.09726831 5.34000001,9.02524256 L8,6.3837297 C8.0270912,6.35382979 8.0572595,6.32689613 8.09,6.3033795 C8.186,6.2632044 8.294,6.2632044 8.39,6.3033795 C8.4367241,6.32418778 8.48044941,6.35121345 8.52,6.3837297 L11.14,8.98506746 C11.2912785,9.13785966 11.2912785,9.38468288 11.14,9.53747509 C10.9824056,9.68545393 10.7375944,9.68545393 10.58,9.53747509 Z M3.25000001,2.05486263 C2.89101493,2.05486263 2.60000002,2.34715146 2.60000002,2.70770801 C2.59995862,3.06992484 2.88940327,3.36510903 3.25000001,3.37059717 C3.61226127,3.36520596 3.9046323,3.07155507 3.91000001,2.70770801 C3.9045358,2.34553275 3.61063815,2.05482105 3.25000001,2.05486263 Z M3.12000001,2.70770801 C3.12000002,2.6355967 3.178203,2.57713894 3.25000001,2.57713894 C3.32179703,2.57713894 3.38000001,2.6355967 3.38000001,2.70770801 C3.38000001,2.85836464 3.12000001,2.85836464 3.12000001,2.70770801 Z M5.09000001,2.05486263 C4.73101492,2.05486263 4.44000001,2.34715146 4.44000001,2.70770801 C4.44000001,3.06826456 4.73101492,3.36055339 5.09000001,3.36055339 C5.4489851,3.36055339 5.74000001,3.06826456 5.74000001,2.70770801 C5.74000001,2.34715146 5.4489851,2.05486263 5.09000001,2.05486263 Z M5.00000001,2.70770801 C5.00000001,2.66106017 5.02477786,2.61795578 5.06500001,2.59463186 C5.10522215,2.57130794 5.15477787,2.57130794 5.19500001,2.59463186 C5.23522215,2.61795578 5.26000001,2.66106017 5.26000001,2.70770801 C5.22000001,2.85836464 5.00000001,2.85836464 5.00000001,2.70770801 Z M6.93,2.05486263 C6.56936187,2.05482105 6.27546422,2.34553275 6.27000001,2.70770801 C6.27536772,3.07155507 6.56773874,3.36520596 6.93,3.37059717 C7.29059674,3.36510903 7.5800414,3.06992484 7.58,2.70770801 C7.58,2.34715146 7.28898509,2.05486263 6.93,2.05486263 Z M6.8,2.70770801 C6.8,2.6355967 6.85820299,2.57713893 6.93,2.57713893 C7.00179702,2.57713893 7.06,2.6355967 7.06,2.70770801 C7.06,2.85836464 6.8,2.85836464 6.8,2.70770801 Z"/>
</svg>
