<svg id="icon-users" data-name="icon-users" xmlns="http://www.w3.org/2000/svg" viewBox="0 0 17 17">
  <g>
    <path d="M8.872,7.831A3.7,3.7,0,1,0,5,7.831c-2.053.892-3.516,3.207-3.833,6.318a1.664,1.664,0,0,0,.423,1.283A1.725,1.725,0,0,0,2.864,16h8.141a1.72,1.72,0,0,0,1.275-.567,1.665,1.665,0,0,0,.425-1.284C12.387,11.038,10.924,8.722,8.872,7.831ZM4.206,4.7A2.728,2.728,0,1,1,6.935,7.425,2.731,2.731,0,0,1,4.206,4.7Zm7.356,10.087a.753.753,0,0,1-.557.248H2.864a.753.753,0,0,1-.558-.248.688.688,0,0,1-.179-.536c.357-3.5,2.289-5.854,4.807-5.854s4.449,2.353,4.807,5.854A.691.691,0,0,1,11.562,14.784Z"/>
    <path d="M12.937,7.268A2.99,2.99,0,1,0,9.292,2.533a.484.484,0,0,0,.617.747,2.025,2.025,0,1,1-.1,3.033.484.484,0,1,0-.666.7,3.007,3.007,0,0,0,.34.266,4.2,4.2,0,0,0-1.019.685.484.484,0,1,0,.658.71,3.026,3.026,0,0,1,2.08-.841c2.015,0,3.494,1.938,3.678,4.823,0,.057-.023.095-.127.15H12.092a.484.484,0,1,0,0,.968h2.657a1.078,1.078,0,0,0,.794-.344,1.121,1.121,0,0,0,.3-.836C15.676,10.01,14.57,8.067,12.937,7.268Z" opacity="0.5"/>
  </g>
</svg>
