<svg id="icon-location" data-name="icon-location" xmlns="http://www.w3.org/2000/svg" viewBox="0 0 17 17">
  <g>
    <path d="M8.5,1A5.172,5.172,0,0,0,3.328,6.172C3.328,9.029,8.5,16,8.5,16s5.172-6.971,5.172-9.828A5.173,5.173,0,0,0,8.5,1ZM4.311,6.172a4.189,4.189,0,0,1,8.378,0c0,1.605-2.319,5.46-4.189,8.141C6.63,11.632,4.311,7.778,4.311,6.172Z"/>
    <path d="M8.5,4.1a2.069,2.069,0,1,0,2.069,2.069A2.069,2.069,0,0,0,8.5,4.1Zm0,3.154A1.085,1.085,0,1,1,9.585,6.172,1.087,1.087,0,0,1,8.5,7.258Z"/>
  </g>
</svg>
