<svg id="icon-file" data-name="icon-file" xmlns="http://www.w3.org/2000/svg" viewBox="0 0 17 17">
  <g>
    <rect x="4.931" y="12.595" width="7.704" height="0.593"/>
    <path d="M10.857.558H4.34a1.188,1.188,0,0,0-1.187,1.19V15.368a1.185,1.185,0,0,0,1.184,1.19h8.892a1.184,1.184,0,0,0,1.184-1.18V4.706Zm0,.889,2.785,3.259H11.447a.6.6,0,0,1-.591-.6Zm2.963,13.93a.591.591,0,0,1-.593.589H4.338a.594.594,0,0,1-.593-.59V1.74a.594.594,0,0,1,.59-.59h5.929V4.11A1.182,1.182,0,0,0,11.448,5.3H13.82Z"/>
    <rect x="4.931" y="7.484" width="7.704" height="0.593"/>
    <rect x="4.931" y="10.039" width="7.704" height="0.593"/>
  </g>
</svg>
