<svg id="icon-buoy" data-name="icon-buoy" xmlns="http://www.w3.org/2000/svg" viewBox="0 0 17 17">
  <path d="M15.991,6.7h-.25A7.5,7.5,0,0,0,10.3,1.258V1.009A.509.509,0,0,0,9.792.5H7.209a.509.509,0,0,0-.509.509v.249A7.5,7.5,0,0,0,1.258,6.7H1.009A.509.509,0,0,0,.5,7.208V9.791a.509.509,0,0,0,.509.509h.249A7.5,7.5,0,0,0,6.7,15.741v.25a.509.509,0,0,0,.509.509H9.792a.509.509,0,0,0,.509-.509v-.25a7.5,7.5,0,0,0,5.44-5.441h.25a.509.509,0,0,0,.509-.509V7.208A.509.509,0,0,0,15.991,6.7Zm-3.7,2.583a3.869,3.869,0,0,0,0-1.565h3.195V9.282H12.287ZM8.5,11.35a2.849,2.849,0,1,1,2.85-2.85A2.852,2.852,0,0,1,8.5,11.35ZM1.647,9.282H1.518V7.717H4.713a3.869,3.869,0,0,0,0,1.565ZM14.709,6.7H11.9a3.866,3.866,0,0,0-1.6-1.6V2.291A6.509,6.509,0,0,1,14.709,6.7ZM7.717,1.518H9.283v3.2a3.867,3.867,0,0,0-1.565,0v-3.2ZM6.7,2.291V5.1A3.867,3.867,0,0,0,5.1,6.7H2.291A6.511,6.511,0,0,1,6.7,2.291ZM2.291,10.3H5.1a3.866,3.866,0,0,0,1.6,1.6v2.807A6.511,6.511,0,0,1,2.291,10.3Zm6.992,5.182H7.717V12.287a3.867,3.867,0,0,0,1.565,0v3.2Zm1.018-.773V11.9a3.865,3.865,0,0,0,1.6-1.6h2.807A6.512,6.512,0,0,1,10.3,14.709Z"/>
</svg>
