<svg id="icon-target" data-name="icon-target" xmlns="http://www.w3.org/2000/svg" viewBox="0 0 16 16">
  <g>
    <path d="M8.229,2.743V0H7.771V2.743A5.266,5.266,0,0,0,2.743,7.771H0v.457H2.743a5.266,5.266,0,0,0,5.029,5.029V16h.457V13.257a5.266,5.266,0,0,0,5.029-5.029H16V7.771H13.257A5.266,5.266,0,0,0,8.229,2.743Zm0,10.034V10.514H7.771v2.263A4.767,4.767,0,0,1,3.223,8.229H5.486V7.771H3.223A4.784,4.784,0,0,1,7.771,3.223V5.486h.457V3.223a4.784,4.784,0,0,1,4.549,4.549H10.514v.457h2.263A4.767,4.767,0,0,1,8.229,12.777Z" />
    <path d="M8,6.171A1.829,1.829,0,1,0,9.829,8,1.834,1.834,0,0,0,8,6.171Zm0,3.2A1.371,1.371,0,1,1,9.371,8,1.375,1.375,0,0,1,8,9.371Z" />
  </g>
</svg>
