<svg id="icon-calendar-up" data-name="icon-calendar-up" xmlns="http://www.w3.org/2000/svg" viewBox="0 0 17 17">
  <path d="M14.6258993,2.51207156 L12.0591527,2.51207156 L12.0591527,1.58058479 C12.0591527,1.37995087 11.8777045,1.21730495 11.6538769,1.21730495 C11.4300493,1.21730495 11.2486011,1.37995087 11.2486011,1.58058479 L11.2486011,2.51207156 L8.92086331,2.51207156 L8.92086331,1.58058479 C8.92086331,1.37995087 8.73941516,1.21730495 8.51558753,1.21730495 C8.2917599,1.21730495 8.11031175,1.37995087 8.11031175,1.58058479 L8.11031175,2.51207156 L5.64748201,2.51207156 L5.64748201,1.47812124 C5.70322139,1.328176 5.64440975,1.163132 5.50202168,1.06991371 C5.35963361,0.976695429 5.16634561,0.976695429 5.02395754,1.06991371 C4.88156947,1.163132 4.82275782,1.328176 4.8784972,1.47812124 L4.8784972,2.51207156 L2.40527578,2.51207156 C2.29778996,2.51207156 2.19470648,2.55034557 2.11870253,2.61847376 C2.04269858,2.68660195 2,2.77900359 2,2.8753514 L2,12.758426 C2.00547215,12.9569927 2.18375437,13.1168008 2.40527578,13.1217059 L4.26538769,13.1217059 C4.41017879,13.1217059 4.54397129,13.0524651 4.61636684,12.940066 C4.68876239,12.8276668 4.68876239,12.6891853 4.61636684,12.5767861 C4.54397129,12.4643869 4.41017879,12.3951462 4.26538769,12.3951462 L2.80015987,12.3951462 L2.80015987,6.98320806 L14.2310152,6.98320806 L14.2310152,12.3672016 L12.5163869,12.3672016 C12.2925593,12.3672016 12.1111111,12.5298475 12.1111111,12.7304814 C12.1111111,12.9311153 12.2925593,13.0937613 12.5163869,13.0937613 L14.5947242,13.0937613 C14.8162456,13.0888562 14.9945279,12.9290481 15,12.7304814 L15,2.83809193 C14.9803002,2.66234813 14.8224365,2.52477346 14.6258993,2.51207156 Z M2.80015987,6.23801864 L2.80015987,3.20137177 L4.8784972,3.20137177 L4.8784972,4.50545325 C4.8784972,4.70608716 5.05994535,4.86873309 5.28377298,4.86873309 C5.50760061,4.86873309 5.68904876,4.70608716 5.68904876,4.50545325 L5.68904876,3.20137177 L8.11031175,3.20137177 L8.11031175,4.56134245 C8.11031176,4.76197636 8.29175991,4.92462227 8.51558753,4.92462227 C8.73941515,4.92462227 8.9208633,4.76197636 8.92086331,4.56134245 L8.92086331,3.20137177 L11.2486011,3.20137177 L11.2486011,4.56134245 C11.2486011,4.76197636 11.4300493,4.92462227 11.6538769,4.92462227 C11.8777045,4.92462227 12.0591527,4.76197636 12.0591527,4.56134245 L12.0591527,3.20137177 L14.2310152,3.20137177 L14.2310152,6.23801864 L2.80015987,6.23801864 Z M8.82733813,8.10099218 L11.3733014,10.3924496 C11.4481861,10.4589269 11.4903171,10.549479 11.4903171,10.6439511 C11.4903171,10.7384232 11.4481861,10.8289753 11.3733014,10.8954525 C11.2152165,11.0363664 10.9598434,11.0363664 10.8017586,10.8954525 L8.86890488,9.11631276 L8.86890488,15.6367202 C8.86890488,15.8373541 8.68745673,16 8.4636291,16 C8.23980146,16 8.05835332,15.8373541 8.05835332,15.6367202 L8.05835332,9.03247895 L5.98001599,10.8954525 C5.91396092,10.9492437 5.82994524,10.981987 5.74100719,10.9886012 C5.63112349,10.9882407 5.52611308,10.9478997 5.45003997,10.8768228 C5.37515527,10.8103455 5.33302421,10.7197934 5.33302421,10.6253213 C5.33302421,10.5308492 5.37515527,10.4402971 5.45003997,10.3738199 L8.14148681,7.9519543 C8.22462152,7.88065803 8.33900668,7.84648063 8.45323741,7.85880562 C8.62306229,7.85902806 8.77370934,7.95655445 8.82733813,8.10099218 Z"/>
</svg>
