<svg id="icon-forbidden" data-name="icon-forbidden" xmlns="http://www.w3.org/2000/svg" viewBox="0 0 17 17">
  <path d="M8.5,1 C4.35786438,1 1,4.35786438 1,8.5 C1,12.6421356 4.35786438,16 8.5,16 C12.6421356,16 16,12.6421356 16,8.5 C16,6.51087633 15.2098237,4.60322198 13.8033009,3.19669914 C12.396778,1.7901763 10.4891237,1 8.5,1 Z M2.23,8.5 C2.22557153,7.04241169 2.72749999,5.6285287 3.65,4.5 L12.46,13.31 C11.3370863,14.2435712 9.92027012,14.750083 8.46,14.74 C5.02672938,14.7127331 2.25176038,11.9333099 2.23,8.5 Z M13.35,12.5 L4.54,3.65 C7.02890971,1.6090682 10.6598872,1.78817379 12.9358567,4.06414327 C15.2118262,6.34011276 15.3909318,9.97109029 13.35,12.46 L13.35,12.5 Z"/>
</svg>
