<svg id="icon-upload" data-name="icon-upload" xmlns="http://www.w3.org/2000/svg" viewBox="0 0 17 17">
  <g>
    <path d="M15.088,5.7a3.415,3.415,0,0,0-2.381-.963,4.741,4.741,0,0,0-8.94,1.635A2.642,2.642,0,0,0,.816,9a2.378,2.378,0,0,0,.7,1.814,3.028,3.028,0,0,0,1.994.705c.064,0,.1,0,.109,0H4.912a.212.212,0,0,0,0-.424H3.607a2.715,2.715,0,0,1-1.8-.59A1.973,1.973,0,0,1,1.24,9,2.218,2.218,0,0,1,3.915,6.83l.24.05.014-.245a4.317,4.317,0,0,1,8.215-1.588l.06.126.139-.005a3.023,3.023,0,0,1,3.138,3.023,2.916,2.916,0,0,1-2.7,2.9h-.986a.212.212,0,0,0,0,.424h1a3.38,3.38,0,0,0,3.109-3.326A3.424,3.424,0,0,0,15.088,5.7Z"/>
    <path d="M8.7,8.1a.212.212,0,0,0-.3,0L6.252,10.249a.212.212,0,0,0,.3.3L8.339,8.761v6.306a.212.212,0,0,0,.424,0V8.761l1.788,1.788a.212.212,0,1,0,.3-.3Z"/>
  </g>
</svg>
