<svg id="icon-download" data-name="icon-download" xmlns="http://www.w3.org/2000/svg" viewBox="0 0 17 17">
  <g>
    <path d="M15.863,12.275a.5.5,0,0,0-.5.5v1.315A1.362,1.362,0,0,1,13.955,15.5H3.046a1.363,1.363,0,0,1-1.409-1.409V12.775a.5.5,0,0,0-1,0v1.315A2.357,2.357,0,0,0,3.046,16.5H13.955a2.356,2.356,0,0,0,2.408-2.409V12.775A.5.5,0,0,0,15.863,12.275Z"/>
    <path d="M8.409,13.071l.006,0a.5.5,0,0,0,.129.09c.012.006.02.017.032.022a.5.5,0,0,0,.393,0c.012-.005.021-.016.032-.022a.5.5,0,0,0,.129-.09l.006,0,4.637-4.909a.5.5,0,1,0-.727-.687l-3.773,4V1a.5.5,0,0,0-1,0V11.47L4.5,7.475a.5.5,0,1,0-.727.688Z"/>
  </g>
</svg>
