<svg id="icon-calendar" data-name="icon-calendar" xmlns="http://www.w3.org/2000/svg" viewBox="0 0 17 17">
  <path d="M15.358,2.705H12.476V1.528a.452.452,0,1,0-.9,0V2.705H8.952V1.528a.452.452,0,1,0-.9,0V2.705H5.276V1.452a.452.452,0,1,0-.9,0V2.705H1.642a.452.452,0,0,0-.452.452V15.548A.452.452,0,0,0,1.642,16H15.358a.452.452,0,0,0,.452-.452V3.157A.452.452,0,0,0,15.358,2.705Zm-13.265.9H4.372V5.241a.452.452,0,1,0,.9,0V3.609H8.048V5.317a.452.452,0,0,0,.9,0V3.609h2.62V5.317a.452.452,0,1,0,.9,0V3.609h2.431V7.442H2.094Zm0,11.487V8.346H14.907V15.1Z"/>
</svg>
