<svg id="icon-paper" data-name="icon-paper" xmlns="http://www.w3.org/2000/svg" viewBox="0 0 17 17">
  <g>
    <path d="M9.762,16.5H3.529A1.983,1.983,0,0,1,1.5,14.572V2.429A1.983,1.983,0,0,1,3.529.5H13.848a1.983,1.983,0,0,1,2.028,1.929v8.325a1.891,1.891,0,0,1-.606,1.376l-4.085,3.817A2.077,2.077,0,0,1,9.762,16.5ZM3.529,1.5A.983.983,0,0,0,2.5,2.429V14.572a.983.983,0,0,0,1.028.928H9.762a1.091,1.091,0,0,0,.74-.284L14.587,11.4a.876.876,0,0,0,.289-.645V2.429A.983.983,0,0,0,13.848,1.5Z"/>
    <path d="M10.895,16h-1v-3.94a1.242,1.242,0,0,1,1.265-1.214h4.217v1H11.159a.246.246,0,0,0-.265.214Z"/>
  </g>
</svg>
