<svg id="icon-comment" data-name="icon-comment" xmlns="http://www.w3.org/2000/svg" viewBox="0 0 17 17">
  <g>
    <path d="M16.5,8.5a8,8,0,1,0-2.309,5.621l0,0A7.956,7.956,0,0,0,16.5,8.5Zm-15,0a7,7,0,1,1,12.254,4.626A19.908,19.908,0,0,0,11.017,12c-.234-.084-.473-.171-.713-.259v-.992a2.436,2.436,0,0,0,.966-1.913,1.219,1.219,0,0,0,.416-.987,1.288,1.288,0,0,0-.313-.894,4.2,4.2,0,0,0,.222-2.162c-.251-1-1.56-1.357-2.6-1.357a2.965,2.965,0,0,0-2.425.949,1.1,1.1,0,0,0-.818.338c-.527.569-.282,1.6-.109,2.222a1.283,1.283,0,0,0-.324.9,1.221,1.221,0,0,0,.417.987A2.436,2.436,0,0,0,6.7,10.747v.993l-.649.236a20.281,20.281,0,0,0-2.792,1.158A6.956,6.956,0,0,1,1.5,8.5Zm2.509,5.367a24.467,24.467,0,0,1,2.379-.95c.333-.121.666-.241.985-.362a.5.5,0,0,0,.323-.468V10.456a.518.518,0,0,0-.33-.47c-.026-.011-.648-.271-.648-1.486a.5.5,0,0,0-.384-.486.68.68,0,0,1,0-.332A.5.5,0,0,0,6.717,7.2a1.563,1.563,0,0,0-.083-.4c-.3-1.08-.209-1.333-.154-1.393.008-.008.087-.039.292,0a.5.5,0,0,0,.583-.369c.072-.288.717-.6,1.635-.6s1.562.312,1.634.6a3.673,3.673,0,0,1-.24,1.73,1.432,1.432,0,0,0-.1.431.5.5,0,0,0,.383.486.68.68,0,0,1,0,.332.5.5,0,0,0-.383.486c0,1.215-.622,1.476-.637,1.481a.5.5,0,0,0-.342.475v1.631a.5.5,0,0,0,.324.468c.354.133.705.26,1.049.384A24.755,24.755,0,0,1,13,13.86a6.991,6.991,0,0,1-8.99.007Z"/>
  </g>
</svg>
