<svg id="logo-sqli" data-name="logo-sqli" xmlns="http://www.w3.org/2000/svg" viewBox="0 0 247 83">
  <title>Sqli logo</title>
  <g>
    <path d="M65.49,30.27a23.62,23.62,0,0,1-2.06,8.1,21.29,21.29,0,0,1-4.38,6.11,19.21,19.21,0,0,1-6.37,3.85,24,24,0,0,1-8,1.33,24.51,24.51,0,0,1-9.82-1.92,21.65,21.65,0,0,1-4-2.23,21.33,21.33,0,0,1-3.35-2.95,23.88,23.88,0,0,1-4.58-7.84A28.31,28.31,0,0,1,21.27,25a29.16,29.16,0,0,1,1.6-9.83,23.55,23.55,0,0,1,4.58-8A21.06,21.06,0,0,1,30.8,4.18a20.62,20.62,0,0,1,4-2.25A25.36,25.36,0,0,1,52,1.13a19.16,19.16,0,0,1,6.24,3.25,17.79,17.79,0,0,1,4.58,5.38,20.13,20.13,0,0,1,2.26,7.3H55a9,9,0,0,0-1.19-3.25,9.22,9.22,0,0,0-2.33-2.66,11.07,11.07,0,0,0-3.19-1.72,9.46,9.46,0,0,0-3.65-.67,11.67,11.67,0,0,0-6,1.4,10.21,10.21,0,0,0-4,3.65A15.36,15.36,0,0,0,32.43,19c-.14.57-.25,1.13-.33,1.66s-.16,1.08-.2,1.66L54.8,32.73v.4a19.35,19.35,0,0,0,.6-2.86Zm-26.82,9.3a11.67,11.67,0,0,0,6,1.39,9.73,9.73,0,0,0,6.51-2.12L32.29,30.27a.6.6,0,0,1,.07.3.6.6,0,0,0,.07.3A15.34,15.34,0,0,0,34.68,36,11.29,11.29,0,0,0,38.67,39.57Z"/>
    <path d="M83,18.52,72.53,23.24V1.06H83ZM72.53,31,83,26.29V48.53H72.53Z"/>
    <path d="M122.39,1.06h9.76V48.53H121.72L101.87,29V48.53H92.11V1.06h10.36l19.92,19.59ZM101.87,17.53l20.52,20.18V32.07L101.87,11.82Z"/>
    <path d="M185.06,48.53H172.91L159.7,28.81l-8,9.37V48.53H141.31V1.06h10.42l8.7,12.42L170.85,1.06h12.42L166,21.38Zm-33.33-24.7,2.59-3-2.59-3.85Z"/>
    <path d="M225.29,39.77v8.76h-36V1.06h35.52V9.83H199.67v4.84h23v8.1h-23v4.05h23v8.1h-23v4.85Z"/>
    <path d="M14.79,61.11v2.4H2.85v6.81H14v2.4H2.85v7.41h12v2.4H0V61.11Zm-6.9-6.39L5,59.58H6.93l4.23-4.86Z"/>
    <path d="M34,82.53,26.49,61.11h3.06l6.12,18.57h.06l6.18-18.57h3L37.26,82.53Z"/>
    <path d="M57.1,67.61A10.66,10.66,0,0,1,59,64a9.44,9.44,0,0,1,3.21-2.49,11.21,11.21,0,0,1,8.94,0A9.44,9.44,0,0,1,74.4,64a10.63,10.63,0,0,1,1.93,3.59,14,14,0,0,1,0,8.43,10.59,10.59,0,0,1-1.93,3.58,9.3,9.3,0,0,1-3.21,2.48,11.43,11.43,0,0,1-8.94,0A9.3,9.3,0,0,1,59,79.62,10.61,10.61,0,0,1,57.1,76a14.2,14.2,0,0,1,0-8.43ZM59.73,75a8.65,8.65,0,0,0,1.32,2.83,6.76,6.76,0,0,0,2.31,2,7.81,7.81,0,0,0,6.72,0,6.76,6.76,0,0,0,2.31-2A8.65,8.65,0,0,0,73.71,75a12.36,12.36,0,0,0,0-6.39,8.7,8.7,0,0,0-1.32-2.84,6.73,6.73,0,0,0-2.31-2,7.72,7.72,0,0,0-6.72,0,6.73,6.73,0,0,0-2.31,2,8.7,8.7,0,0,0-1.32,2.84,12.36,12.36,0,0,0,0,6.39Z"/>
    <path d="M93.81,61.11v19h11.34v2.4H91V61.11Z"/>
    <path d="M133.05,81A8.77,8.77,0,0,1,126.81,83a9.73,9.73,0,0,1-6.47-2q-2.32-2-2.32-6.26V61.11h2.85V74.79a5.83,5.83,0,0,0,1.53,4.37,6.08,6.08,0,0,0,4.41,1.48A5.48,5.48,0,0,0,131,79.16a6.08,6.08,0,0,0,1.43-4.37V61.11h2.85V74.79Q135.24,78.9,133.05,81Z"/>
    <path d="M148,63.51v-2.4h17.13v2.4H158v19h-2.85v-19Z"/>
    <path d="M181,61.11V82.53h-2.85V61.11Z"/>
    <path d="M195.73,67.61A10.66,10.66,0,0,1,197.67,64a9.44,9.44,0,0,1,3.21-2.49,11.21,11.21,0,0,1,8.94,0A9.44,9.44,0,0,1,213,64,10.63,10.63,0,0,1,215,67.61,14,14,0,0,1,215,76,10.59,10.59,0,0,1,213,79.62a9.3,9.3,0,0,1-3.21,2.48,11.43,11.43,0,0,1-8.94,0,9.3,9.3,0,0,1-3.21-2.48A10.61,10.61,0,0,1,195.73,76a14.2,14.2,0,0,1,0-8.43ZM198.36,75a8.65,8.65,0,0,0,1.32,2.83,6.76,6.76,0,0,0,2.31,2,7.81,7.81,0,0,0,6.72,0,6.76,6.76,0,0,0,2.31-2A8.65,8.65,0,0,0,212.34,75a12.36,12.36,0,0,0,0-6.39A8.7,8.7,0,0,0,211,65.79a6.73,6.73,0,0,0-2.31-2,7.72,7.72,0,0,0-6.72,0,6.73,6.73,0,0,0-2.31,2,8.7,8.7,0,0,0-1.32,2.84,12.36,12.36,0,0,0,0,6.39Z"/>
    <path d="M232.59,61.11l11.28,17.37h.06V61.11h2.7V82.53h-3.12L232.32,65.34h-.06V82.53h-2.7V61.11Z"/>
  </g>
</svg>
