<svg id="logo-sqli" data-name="logo-sqli" xmlns="http://www.w3.org/2000/svg" viewBox="0 0 241.755 170.608">
  <title>SQLI logo</title>
  <g>
    <g>
      <polygon points="100.817 82.998 100.817 75.24 25.577 0 17.821 7.756 93.069 82.998 100.817 82.998" fill="#db1614"/>
      <polygon points="105.44 82.992 113.19 82.992 188.433 7.756 180.675 0 105.44 75.238 105.44 82.992" fill="#1d1d1b"/>
      <polygon points="105.435 87.613 105.435 95.369 180.675 170.608 188.433 162.856 113.192 87.613 105.435 87.613" fill="#1d1d1b"/>
      <polygon points="100.825 87.606 93.068 87.606 17.821 162.856 25.577 170.608 100.825 95.358 100.825 87.606" fill="#db1614"/>
    </g>
    <g>
      <path d="M8.026,101.742c-5.193,0-7.884-2.785-8.026-8.4,0-.283.095-.473.378-.52l3.966-.66a.409.409,0,0,1,.519.424C5,95.983,6,97.3,8.167,97.3c2.03,0,3.021-1.086,3.021-4.58,0-3.447-.661-4.58-3.163-5.57L6.09,86.4c-4.438-1.747-5.76-4.06-5.76-9.064,0-5.524,2.5-8.545,7.79-8.545s7.6,2.833,7.884,7.837c0,.284-.142.425-.425.519l-3.777.567c-.283.047-.519-.094-.519-.377-.095-2.644-.944-4.107-3.021-4.107-1.983,0-2.927,1.227-2.927,3.871,0,2.975.566,3.872,3.116,4.863l1.936.755c4.2,1.652,5.854,3.919,5.854,9.4C16.241,98.438,14.116,101.742,8.026,101.742Z" fill="#1d1d1b"/>
      <path d="M35.361,102.166a.455.455,0,0,1-.661,0l-2.219-1.889a7.32,7.32,0,0,1-4.721,1.465c-3.966,0-6.562-1.842-7.6-5-.472-1.418-.614-2.551-.614-11.473s.142-10.056.614-11.472c1.038-3.163,3.635-5,7.6-5,3.918,0,6.515,1.841,7.554,5,.472,1.416.614,2.549.614,11.472s-.236,10.151-.992,11.8L37.3,99a.466.466,0,0,1,.094.66Zm-6.185-5.144-2.36-1.936a.468.468,0,0,1-.094-.662l1.6-1.936a.443.443,0,0,1,.708-.047l1.794,1.605h.095V85.265c0-8.828-.142-9.206-.425-10.1a2.727,2.727,0,0,0-2.738-1.794,2.749,2.749,0,0,0-2.786,1.794c-.283.9-.331,1.275-.331,10.1s.047,9.252.331,10.1a2.727,2.727,0,0,0,2.786,1.84A5.146,5.146,0,0,0,29.177,97.022Z" fill="#1d1d1b"/>
      <path d="M40.366,69.686a.446.446,0,0,1,.472-.472h4.107a.446.446,0,0,1,.472.472v26.77a.251.251,0,0,0,.283.283H54.01a.445.445,0,0,1,.472.471v3.637a.445.445,0,0,1-.472.471H40.838a.445.445,0,0,1-.472-.471Z" fill="#1d1d1b"/>
      <path d="M57.929,69.686a.446.446,0,0,1,.472-.472h4.107a.446.446,0,0,1,.472.472v31.16a.445.445,0,0,1-.472.471H58.4a.445.445,0,0,1-.472-.471Z" fill="#1d1d1b"/>
    </g>
    <g>
      <path d="M143.271,85.265c0-8.923.142-10.056.614-11.472,1.038-3.163,3.635-5,7.6-5,4.626,0,7.459,2.455,7.978,7.507a.489.489,0,0,1-.377.566l-3.824.661a.415.415,0,0,1-.52-.378c-.236-2.5-1.322-3.777-3.21-3.777a2.749,2.749,0,0,0-2.786,1.794c-.283.9-.33,1.275-.33,10.1s.047,9.206.33,10.1a3.171,3.171,0,0,0,5.712,0c.236-.8.331-1.275.331-7.225a.251.251,0,0,0-.283-.283H152a.445.445,0,0,1-.472-.471V83.9a.446.446,0,0,1,.472-.472h7.176a.446.446,0,0,1,.472.472v1.416c0,8.875-.142,10.008-.614,11.426-1.038,3.162-3.635,5-7.554,5-3.966,0-6.562-1.842-7.6-5C143.413,95.32,143.271,94.188,143.271,85.265Z" fill="#db1614"/>
      <path d="M176.13,101.316a.476.476,0,0,1-.52-.33l-3.918-12.8h-2.408a.251.251,0,0,0-.283.283v12.371a.445.445,0,0,1-.472.471h-4.107a.445.445,0,0,1-.472-.471V69.686a.446.446,0,0,1,.472-.472h6.468c5.713,0,9.159,2.5,9.159,9.537,0,4.2-1.416,6.846-3.824,8.215l4.532,13.881c.095.234,0,.471-.236.471ZM175,78.75c0-3.777-1.228-4.957-4.06-4.957h-1.652a.25.25,0,0,0-.283.283v9.348a.251.251,0,0,0,.283.284h1.652C173.769,83.708,175,82.574,175,78.75Z" fill="#db1614"/>
      <path d="M184.581,96.738c-.472-1.418-.614-2.551-.614-11.473s.142-10.056.614-11.472c1.039-3.163,3.635-5,7.6-5,3.918,0,6.515,1.841,7.554,5,.472,1.416.614,2.549.614,11.472s-.142,10.055-.614,11.473c-1.039,3.162-3.635,5-7.554,5C188.217,101.742,185.62,99.9,184.581,96.738Zm10.292-1.369c.283-.9.331-1.275.331-10.1s-.047-9.206-.331-10.1a2.951,2.951,0,0,0-5.429,0c-.283.9-.331,1.275-.331,10.1s.047,9.206.331,10.1a2.951,2.951,0,0,0,5.429,0Z" fill="#db1614"/>
      <path d="M204.741,93.15V69.686a.446.446,0,0,1,.472-.472h4.107a.446.446,0,0,1,.472.472V93.811c0,2.029,1.086,3.352,2.975,3.352s2.927-1.322,2.927-3.352V69.686a.446.446,0,0,1,.472-.472h4.107a.446.446,0,0,1,.472.472V93.15c0,5.711-3.021,8.592-7.978,8.592S204.741,98.861,204.741,93.15Z" fill="#db1614"/>
      <path d="M226.175,101.316a.445.445,0,0,1-.472-.471V69.686a.446.446,0,0,1,.472-.472h6.468c5.713,0,9.112,2.55,9.112,9.867,0,7.128-3.4,9.867-9.112,9.867h-1.6a.251.251,0,0,0-.283.283v11.615a.445.445,0,0,1-.473.471ZM236.7,79.081c0-4.06-1.181-5.288-4.06-5.288h-1.6a.25.25,0,0,0-.283.283V84.085a.25.25,0,0,0,.283.283h1.6C235.522,84.368,236.7,83.141,236.7,79.081Z" fill="#db1614"/>
    </g>
  </g>
</svg>
